<svg id="sw-js-blob-svg" viewBox="0 0 100 100" xmlns="http://www.w3.org/2000/svg">                    
<defs>                         
<linearGradient id="sw-gradient" x1="0" x2="1" y1="1" y2="0">                            
<stop id="stop1" stop-color="rgba(55, 225.118, 248, 1)" offset="0%"></stop>                            
<stop id="stop2" stop-color="rgba(31, 128.036, 251, 1)" offset="100%"></stop>                        
</linearGradient>                    
</defs>                
<path fill="url(#sw-gradient)" d="M25.6,-32.6C31.6,-30.9,33.9,-21.3,35.1,-12.6C36.3,-3.9,36.4,4,32.7,9.2C29,14.3,21.5,16.8,15.4,19.5C9.3,22.1,4.7,24.9,0.9,23.7C-2.8,22.4,-5.7,17,-12.7,14.7C-19.7,12.3,-30.9,13,-35.2,9.2C-39.5,5.4,-36.9,-2.9,-33.5,-10.2C-30.1,-17.5,-26,-23.8,-20.3,-25.7C-14.6,-27.6,-7.3,-25,1.2,-26.7C9.8,-28.4,19.6,-34.4,25.6,-32.6Z" width="100%" height="100%" transform="translate(50 50)" stroke-width="0" style="transition: all 0.3s ease 0s;" stroke="url(#sw-gradient)"></path> 
<text x="50%" y="50%" textAnchor="middle" fill="#ffffff" fontSize="9"> Take back control of your mone </text>
</svg>